<svg id="Capa_1" enable-background="new 0 0 497 497" height="512" viewBox="0 0 497 497" width="512" xmlns="http://www.w3.org/2000/svg"><g><g><path d="m318.744 356.281c18.995 40.578 8.573 85.559 8.573 85.559s-41.218-20.809-60.212-61.386c-18.995-40.578-8.573-85.559-8.573-85.559s41.217 20.808 60.212 61.386z" fill="#94d4a2"/></g><g><path d="m360.566 356.281c-18.995 40.578-8.573 85.559-8.573 85.559s41.218-20.809 60.212-61.386c18.995-40.578 8.573-85.559 8.573-85.559s-41.217 20.808-60.212 61.386z" fill="#94d4a2"/></g><g><path d="m368.163 351.045c0 44.803-28.508 81.124-28.508 81.124s-28.508-36.32-28.508-81.124c0-44.803 28.508-81.124 28.508-81.124s28.508 36.32 28.508 81.124z" fill="#6dc17d"/></g><g><path d="m339.655 269.921s-7.633 9.742-15 25.335c6.87 14.541 13.508 34.169 13.508 55.789 0 21.619-6.638 41.247-13.508 55.788 7.367 15.594 15 25.335 15 25.335s28.508-36.32 28.508-81.124c0-44.803-28.508-81.123-28.508-81.123z" fill="#68b76a"/></g><g><path d="m141.21 96.616c18.995 40.578 8.573 85.559 8.573 85.559s-41.218-20.809-60.212-61.386-8.574-85.559-8.574-85.559 41.218 20.809 60.213 61.386z" fill="#94d4a2"/></g><g><path d="m183.032 96.616c-18.995 40.578-8.573 85.559-8.573 85.559s41.218-20.809 60.212-61.386 8.573-85.559 8.573-85.559-41.217 20.809-60.212 61.386z" fill="#94d4a2"/></g><g><path d="m190.629 91.38c0 44.803-28.508 81.124-28.508 81.124s-28.508-36.32-28.508-81.124c0-44.803 28.508-81.124 28.508-81.124s28.508 36.321 28.508 81.124z" fill="#6dc17d"/></g><g><path d="m162.121 10.257s-6.633 8.466-13.5 22.243c7.37 14.785 15.008 35.688 15.008 58.881s-7.639 44.096-15.008 58.881c6.867 13.776 13.5 22.243 13.5 22.243s28.508-36.32 28.508-81.124-28.508-81.124-28.508-81.124z" fill="#68b76a"/></g><g><path d="m215.928 396.338c0 49.135-33.455 49.845-74.724 49.845s-74.724-.71-74.724-49.845 33.455-126.827 74.724-126.827 74.724 77.692 74.724 126.827z" fill="#68b76a"/></g><g><path d="m172.091 396.338c0 49.135-13.828 49.845-30.887 49.845s-30.886-.71-30.886-49.845 13.828-126.827 30.886-126.827 30.887 77.692 30.887 126.827z" fill="#aaddb6"/></g><g><path d="m430.929 141.88c0 49.135-33.455 49.845-74.724 49.845s-74.724-.71-74.724-49.845 33.455-126.827 74.724-126.827 74.724 77.692 74.724 126.827z" fill="#68b76a"/></g><g><path d="m387.091 141.88c0 49.135-13.828 49.845-30.886 49.845s-30.887-.71-30.887-49.845 13.828-126.827 30.887-126.827 30.886 77.692 30.886 126.827z" fill="#94d4a2"/></g><g><path d="m37.219 402.201v-365.611c0-3.781-3.065-6.847-6.847-6.847h-23.525c-3.782 0-6.847 3.066-6.847 6.847v352.009z" fill="#c27e4e"/></g><g><path d="m497 388.599v-352.009c0-3.781-3.065-6.847-6.847-6.847h-23.525c-3.781 0-6.847 3.065-6.847 6.847v365.611z" fill="#c27e4e"/></g><g><path d="m497 184.929h-497v-57.219h497z" fill="#e3b783"/></g><g><path d="m497 184.929h-497v40.925h497z" fill="#cf9875"/></g><g><path d="m497 445.818h-497v-57.219h497z" fill="#e3b783"/></g><g><path d="m497 445.818h-497v22.086c0 10.405 8.435 18.84 18.84 18.84h459.32c10.405 0 18.84-8.435 18.84-18.84z" fill="#cf9875"/></g><path d="m467 445.818v22.086c0 10.405-8.435 18.84-18.84 18.84h-429.32 459.32c10.405 0 18.84-8.435 18.84-18.84v-22.086z" fill="#c7865b"/><g><path d="m497 127.71h-33.612v57.219h33.612z" fill="#d6a974"/></g><g><path d="m463.388 184.929v40.925h33.612v-40.925z" fill="#c7865b"/></g><g><path d="m497 388.599h-30v57.219h30z" fill="#d6a974"/></g></g></svg>