<svg id="Capa_1" enable-background="new 0 0 512 512" height="512" viewBox="0 0 512 512" width="512" xmlns="http://www.w3.org/2000/svg"><g><path d="m202.85 340.889-30.229-49.466v-179.643c0-12.346-6.708-23.126-16.679-28.892l-16.673-4.46v-25.014c0-18.783-15.527-33.94-34.446-33.334-7.017.225-12.777 5.131-14.802 11.578l-.78 18.123c-4.923-2.865-10.569-4.705-16.676-4.705l-8.899 16.676v186.398c0 25.56 5.11 50.861 15.028 74.418l41.221 97.901c6.9 16.387 10.454 33.988 10.454 51.768v23.088l8.9 16.675h75.041c9.21 0 16.676-7.466 16.676-16.676v-54.436c0-35.286-9.736-69.889-28.136-99.999z" fill="#f6d190"/><path d="m440.779 45.105c-6.623-.28-12.739 1.522-18.021 4.597v-12.964c0-8.778-6.808-16.377-15.581-16.658-6.486-.208-12.573 1.437-17.773 4.446l-16.674 53.902c-6.075 0-11.771 1.625-16.677 4.463l-9.053 28.889v179.644l-30.229 49.466c-18.4 30.11-28.136 64.713-28.136 100v54.436l9.055 16.674h75.041c9.21 0 16.676-7.466 16.676-16.676v-23.088c0-17.78 3.554-35.381 10.454-51.768l41.221-97.901c9.918-23.557 15.028-48.858 15.028-74.418v-186.397c0-8.684-6.655-16.281-15.331-16.647z" fill="#f6d190"/><path d="m304.018 99.002-3.932-19.649c-6.432-25.248-17.905-49.044-33.523-70.718l-9.813-1.135c-27.571 36.015-42.75 75.5-42.75 136l42 114.776c26.448-31.613 43.704-68.494 48.598-108.262l1.422-25.005c-.075-8.791-.753-17.468-2.002-26.007z" fill="#b3e59f"/><g fill="#ecbd83"><path d="m127.511 413.997-41.217-97.897c-9.111-21.631-13.728-44.495-13.728-67.949v-203.075c-9.461-.243-16.676 7.466-16.676 16.676v186.397c0 25.56 5.109 50.862 15.028 74.418l41.221 97.9c6.9 16.387 10.454 33.988 10.454 51.769v23.088c0 9.21 7.466 16.676 16.676 16.676v-39.764c0-20.104-3.957-39.695-11.758-58.239z"/><path d="m90.021 31.658c-.511 1.602-.779 3.309-.779 5.08v13.043c9.928 5.75 16.676 16.342 16.676 28.647v125.069c0 4.605 3.733 8.338 8.338 8.338 4.605 0 8.338-3.733 8.338-8.338v-125.069c-.001-21.402-13.632-39.649-32.573-46.77z"/><path d="m155.945 211.835v-128.953c-4.923-2.865-10.569-4.455-16.676-4.455v133.407c0 4.605 3.733 8.338 8.338 8.338 4.605.001 8.338-3.732 8.338-8.337z"/><path d="m422.758 49.702c-9.927 5.777-16.676 16.412-16.676 28.726v125.069c0 4.605 3.733 8.338 8.338 8.338s8.338-3.733 8.338-8.338z"/><path d="m381.069 220.173c4.605 0 8.338-3.733 8.338-8.338v-187.306c-9.934 5.776-16.676 16.566-16.676 28.885v158.421c0 4.604 3.733 8.338 8.338 8.338z"/><path d="m398.886 247.311c-4.04-1.616-8.235-2.39-12.375-2.39-11.335 0-22.257 5.798-28.47 15.965l-1.986 3.25v-181.242c-9.927 5.778-16.676 16.572-16.676 28.885v179.644l-30.229 49.466c-18.4 30.11-28.136 64.713-28.136 100v54.436c0 9.209 7.466 16.676 16.676 16.676v-71.111c0-32.219 8.889-63.813 25.69-91.304l48.251-78.956c3.224-5.275 8.817-9.075 14.999-9.031 2.076.015 4.116.419 6.094 1.268l-40.428 101.072c-1.604 4.009.118 8.578 3.969 10.532 4.367 2.216 9.695.208 11.514-4.339l42.435-106.088c3.205-8.016-2.438-13.516-11.328-16.733z"/><path d="m119.276 262.865c1.98-.85 4.022-1.254 6.099-1.268 6.181-.042 11.771 3.757 14.994 9.031l17.188 28.125c4.281 7.005 15.064 3.971 15.064-4.238v-3.091l-18.662-30.537c-6.213-10.167-17.135-15.965-28.47-15.965-4.14 0-8.335.774-12.375 2.39-8.89 3.217-14.533 8.717-11.327 16.731l42.435 106.088c1.819 4.548 7.147 6.555 11.514 4.339h.001c3.85-1.954 5.572-6.523 3.968-10.532z"/></g><path d="m306.021 125.009-41.683 41.683v-28.01l39.68-39.68c-.97-6.658-2.283-13.171-3.932-19.649l-35.748 35.748v-36.673c0-4.605-3.729-8.338-8.338-8.338s-8.338 3.733-8.338 8.338v36.674l-21.695-21.695c5.869-29.968 19.648-58.849 40.596-84.771-1.333-1.851-2.658-3.634-4.052-5.455-3.247-4.241-9.776-4.241-13.023 0-27.571 36.015-43.516 78.257-43.516 123.482 0 44.149 15.316 85.391 41.69 120.837l16.676-57.227 40.259-40.259c.965-7.762 1.431-15.388 1.431-23.352-.001-.534-.002-1.119-.007-1.653zm-58.359 41.684-24.212-24.212c-.485-5.25-.802-10.52-.802-15.817 0-4.161.266-8.298.564-12.431l24.449 24.449v28.011z" fill="#95d6a4"/><path d="m256 370.255c-4.605 0-8.338-3.733-8.338-8.338v-175.096c0-4.605 3.733-8.338 8.338-8.338 4.605 0 8.338 3.733 8.338 8.338v175.096c0 4.605-3.733 8.338-8.338 8.338z" fill="#78c2a4"/></g></svg>