<?xml version="1.0" encoding="utf-8"?>
<!-- Generator: Adobe Illustrator 23.0.1, SVG Export Plug-In . SVG Version: 6.00 Build 0)  -->
<svg version="1.1" id="Camada_1" xmlns="http://www.w3.org/2000/svg" xmlns:xlink="http://www.w3.org/1999/xlink" x="0px" y="0px"
	 viewBox="0 0 502 136" style="enable-background:new 0 0 502 136;" xml:space="preserve">
<style type="text/css">
	.st0{fill:#32D736;}
	.st1{fill:#10BB67;}
	.st2{fill:#0CA656;}
</style>
<g>
	<path d="M33.3,63.8c2.2-4,5.1-7.1,8.9-9.4c3.8-2.2,8-3.3,12.6-3.3c4.6,0,8.5,1,11.9,2.9c3.4,2,5.9,4.4,7.5,7.4V52H83v52.1h-8.8
		v-9.7c-1.7,3-4.3,5.6-7.7,7.6c-3.4,2-7.3,3-11.8,3c-4.6,0-8.8-1.1-12.6-3.4c-3.7-2.3-6.7-5.5-8.8-9.6c-2.2-4.1-3.2-8.8-3.2-14.1
		C30.1,72.5,31.2,67.9,33.3,63.8z M71.8,67.7c-1.6-2.9-3.7-5.2-6.4-6.7c-2.7-1.6-5.7-2.3-8.9-2.3c-3.2,0-6.2,0.8-8.8,2.3
		c-2.7,1.5-4.8,3.7-6.4,6.7c-1.6,2.9-2.4,6.3-2.4,10.3c0,4,0.8,7.5,2.4,10.4c1.6,2.9,3.7,5.2,6.4,6.8c2.7,1.6,5.6,2.3,8.8,2.3
		c3.2,0,6.2-0.8,8.9-2.3c2.7-1.6,4.8-3.8,6.4-6.8c1.6-2.9,2.4-6.4,2.4-10.3C74.2,74,73.4,70.6,71.8,67.7z"/>
	<path d="M106.3,33.7v70.4h-8.7V33.7H106.3z"/>
	<path d="M130.5,101.6c-4-2.2-7.1-5.4-9.3-9.5c-2.3-4.1-3.4-8.8-3.4-14.2c0-5.3,1.2-10,3.5-14.1c2.3-4.1,5.5-7.2,9.5-9.4
		c4-2.2,8.5-3.3,13.4-3.3c4.9,0,9.4,1.1,13.4,3.3c4,2.2,7.1,5.3,9.5,9.4c2.3,4.1,3.5,8.8,3.5,14.2c0,5.4-1.2,10.1-3.6,14.2
		c-2.4,4.1-5.6,7.2-9.7,9.5c-4.1,2.2-8.6,3.3-13.5,3.3C138.9,105,134.4,103.9,130.5,101.6z M152.5,95.2c2.7-1.5,4.9-3.6,6.6-6.6
		c1.7-2.9,2.5-6.5,2.5-10.7c0-4.2-0.8-7.7-2.5-10.7c-1.6-2.9-3.8-5.1-6.5-6.5c-2.7-1.4-5.5-2.1-8.7-2.1c-3.2,0-6.1,0.7-8.7,2.1
		c-2.6,1.4-4.7,3.6-6.3,6.5c-1.6,2.9-2.4,6.5-2.4,10.7c0,4.2,0.8,7.8,2.3,10.7c1.6,2.9,3.6,5.1,6.2,6.5c2.6,1.4,5.5,2.1,8.6,2.1
		C146.8,97.4,149.8,96.6,152.5,95.2z"/>
	<path d="M229.1,81.3h-41.7c0.3,5.1,2.1,9.1,5.3,12c3.2,2.9,7.1,4.3,11.7,4.3c3.7,0,6.9-0.9,9.4-2.6c2.5-1.7,4.3-4.1,5.3-7h9.3
		c-1.4,5-4.2,9.1-8.4,12.2c-4.2,3.1-9.4,4.7-15.6,4.7c-4.9,0-9.4-1.1-13.3-3.3c-3.9-2.2-7-5.4-9.2-9.5c-2.2-4.1-3.3-8.8-3.3-14.2
		c0-5.4,1.1-10.1,3.2-14.2c2.2-4.1,5.2-7.2,9.1-9.4s8.4-3.3,13.5-3.3c4.9,0,9.3,1.1,13.1,3.2c3.8,2.2,6.7,5.1,8.8,8.9
		c2.1,3.8,3.1,8,3.1,12.8C229.4,77.7,229.3,79.5,229.1,81.3z M218.3,65.7c-1.5-2.4-3.4-4.2-5.9-5.4c-2.5-1.2-5.3-1.9-8.3-1.9
		c-4.4,0-8.1,1.4-11.2,4.2c-3.1,2.8-4.8,6.7-5.3,11.6h32.9C220.5,71,219.8,68.1,218.3,65.7z"/>
	<path d="M285.6,96.1L301.8,52h9.2l-20.4,52.1h-10.1L260.1,52h9.3L285.6,96.1z"/>
	<path d="M366.9,81.3h-41.7c0.3,5.1,2.1,9.1,5.3,12c3.2,2.9,7.1,4.3,11.7,4.3c3.7,0,6.9-0.9,9.4-2.6c2.5-1.7,4.3-4.1,5.3-7h9.3
		c-1.4,5-4.2,9.1-8.4,12.2c-4.2,3.1-9.4,4.7-15.6,4.7c-4.9,0-9.4-1.1-13.3-3.3c-3.9-2.2-7-5.4-9.2-9.5c-2.2-4.1-3.3-8.8-3.3-14.2
		c0-5.4,1.1-10.1,3.2-14.2c2.2-4.1,5.2-7.2,9.1-9.4s8.4-3.3,13.5-3.3c4.9,0,9.3,1.1,13.1,3.2c3.8,2.2,6.7,5.1,8.8,8.9
		c2.1,3.8,3.1,8,3.1,12.8C367.1,77.7,367,79.5,366.9,81.3z M356,65.7c-1.5-2.4-3.4-4.2-5.9-5.4c-2.5-1.2-5.3-1.9-8.3-1.9
		c-4.4,0-8.1,1.4-11.2,4.2c-3.1,2.8-4.8,6.7-5.3,11.6h32.9C358.2,71,357.5,68.1,356,65.7z"/>
	<path d="M393.7,53.5c2.8-1.6,6.3-2.5,10.3-2.5V60h-2.3c-9.7,0-14.6,5.3-14.6,15.8v28.3h-8.7V52h8.7v8.5
		C388.7,57.5,390.9,55.2,393.7,53.5z"/>
	<path d="M414,63.8c2.2-4,5.1-7.1,8.9-9.4c3.8-2.2,8-3.3,12.6-3.3c4.6,0,8.5,1,11.9,2.9c3.4,2,5.9,4.4,7.5,7.4V52h8.7v52.1h-8.7
		v-9.7c-1.7,3-4.3,5.6-7.7,7.6c-3.4,2-7.3,3-11.8,3c-4.6,0-8.8-1.1-12.6-3.4c-3.7-2.3-6.7-5.5-8.8-9.6c-2.2-4.1-3.2-8.8-3.2-14.1
		C410.8,72.5,411.9,67.9,414,63.8z M452.5,67.7c-1.6-2.9-3.7-5.2-6.4-6.7c-2.7-1.6-5.7-2.3-8.9-2.3s-6.2,0.8-8.8,2.3
		c-2.7,1.5-4.8,3.7-6.4,6.7c-1.6,2.9-2.4,6.3-2.4,10.3c0,4,0.8,7.5,2.4,10.4c1.6,2.9,3.7,5.2,6.4,6.8c2.7,1.6,5.6,2.3,8.8,2.3
		s6.2-0.8,8.9-2.3c2.7-1.6,4.8-3.8,6.4-6.8c1.6-2.9,2.4-6.4,2.4-10.3C454.9,74,454.1,70.6,452.5,67.7z"/>
</g>
<path class="st0" d="M447.4,11.5c-0.2-0.3-0.6-0.5-0.9-0.5s-0.7,0.2-0.9,0.5c-0.2,0.3-4.5,7.8-4.5,17.1c0,0.1,0,0.2,0,0.3l4.1,14.5
	c0.1,0.5,0.6,0.8,1,0.8c0,0,0,0,0,0c0.1,0,0.2,0,0.3,0c0.3-0.1,0.7-0.3,0.8-0.7l4.6-14.5c0-0.1,0-0.3,0-0.4
	C451.9,19.3,447.6,11.8,447.4,11.5z"/>
<g>
	<path class="st1" d="M460.5,16.9l-2.8,9.6c-1,3.5-1.5,7.2-1.5,10.9c0,0.3-0.1,0.5-0.3,0.7l-8.7,9.5c0,0,0,0,0,0c0,0,0,0,0,0v0h0v0
		h-1.5v0h0v0c0,0,0,0,0,0c0,0,0,0,0,0l-8.7-9.5c-0.2-0.2-0.3-0.5-0.3-0.7c0-3.7-0.5-7.3-1.5-10.9l-2.8-9.6c-0.1-0.5,0.1-1,0.5-1.3
		c0.5-0.2,1-0.1,1.3,0.2l3.1,3.7c4.5,5.2,7.5,11.3,9.1,17.9c1.5-6.6,4.6-12.7,9.1-17.9l3.1-3.7c0.3-0.4,0.9-0.5,1.3-0.2
		C460.5,15.8,460.7,16.4,460.5,16.9z"/>
	<path class="st1" d="M451.9,28.5c0,0.1,0,0.3,0,0.4l-4.6,14.5c-0.1,0.4-0.4,0.6-0.8,0.7V11c0.4,0,0.7,0.2,0.9,0.5
		C447.6,11.8,451.9,19.3,451.9,28.5z"/>
</g>
<path class="st2" d="M460.5,16.9l-2.8,9.6c-1,3.5-1.5,7.2-1.5,10.9c0,0.3-0.1,0.5-0.3,0.7l-8.7,9.5c0,0,0,0,0,0c0,0,0,0,0,0v0h0v0
	h-0.7V37.4c1.5-6.6,4.6-12.7,9.1-17.9l3.1-3.7c0.3-0.4,0.9-0.5,1.3-0.2C460.5,15.8,460.7,16.4,460.5,16.9z"/>
<path class="st0" d="M465,23.1v8.7c0,9-7.4,16.3-16.3,16.3h-4.3c-9,0-16.3-7.3-16.3-16.3v-8.7c0-0.5,0.4-1,0.9-1.1
	c0.5-0.1,1,0.2,1.2,0.7l2.2,5.4c1.3,3.4,3.6,6.3,6.4,8.6l2.5,2c2.1,1.7,3.9,3.7,5.3,6c1.4-2.3,3.2-4.3,5.3-6l2.5-2
	c2.8-2.3,5-5.2,6.4-8.6l2.3-5.4c0.2-0.5,0.7-0.8,1.2-0.7C464.6,22.1,465,22.5,465,23.1z"/>
<path class="st1" d="M465,23.1v8.7c0,9-7.4,16.3-16.3,16.3h-2.2v-3.3c1.4-2.3,3.2-4.3,5.3-6l2.5-2c2.8-2.3,5-5.2,6.4-8.6l2.3-5.4
	c0.2-0.5,0.7-0.8,1.2-0.7C464.6,22.1,465,22.5,465,23.1z"/>
</svg>
